<svg xmlns="http://www.w3.org/2000/svg" xmlns:ev="http://www.w3.org/2001/xml-events" width="600" height="300" aria-label="A chart." overflow="hidden" xlink="http://www.w3.org/1999/xlink"><defs id="defs"><clipPath id="_ABSTRACT_RENDERER_ID_0"><rect width="400" height="185" x="100" y="58"/></clipPath></defs><g><text x="100" y="23.7" fill="#000" stroke="none" stroke-width="0" font-family="Arial" font-size="12" font-weight="bold" text-anchor="start">AA Benchmark Comparison (Linux/64, Core i5-2400S)</text></g><g><rect width="135" height="12" x="365" y="33" fill="#fff" fill-opacity="0" stroke="none" stroke-width="0"/><g><rect width="55" height="12" x="365" y="33" fill="#fff" fill-opacity="0" stroke="none" stroke-width="0"/><g><text x="382" y="43.2" fill="#222" stroke="none" stroke-width="0" font-family="Arial" font-size="12" text-anchor="start">old_aa</text></g><rect width="12" height="12" x="365" y="33" fill="#36c" stroke="none" stroke-width="0"/></g><g><rect width="61" height="12" x="439" y="33" fill="#fff" fill-opacity="0" stroke="none" stroke-width="0"/><g><text x="456" y="43.2" fill="#222" stroke="none" stroke-width="0" font-family="Arial" font-size="12" text-anchor="start">new_aa</text></g><rect width="12" height="12" x="439" y="33" fill="#dc3912" stroke="none" stroke-width="0"/></g></g><g><rect width="400" height="185" x="100" y="58" fill="#fff" fill-opacity="0" stroke="none" stroke-width="0"/><g clip-path="url(#_ABSTRACT_RENDERER_ID_0)"><g><rect width="400" height="1" x="100" y="242" fill="#ccc" stroke="none" stroke-width="0"/><rect width="400" height="1" x="100" y="211" fill="#ccc" stroke="none" stroke-width="0"/><rect width="400" height="1" x="100" y="181" fill="#ccc" stroke="none" stroke-width="0"/><rect width="400" height="1" x="100" y="150" fill="#ccc" stroke="none" stroke-width="0"/><rect width="400" height="1" x="100" y="119" fill="#ccc" stroke="none" stroke-width="0"/><rect width="400" height="1" x="100" y="89" fill="#ccc" stroke="none" stroke-width="0"/><rect width="400" height="1" x="100" y="58" fill="#ccc" stroke="none" stroke-width="0"/></g><g><rect width="20" height="152" x="113" y="90" fill="#36c" stroke="none" stroke-width="0"/><rect width="20" height="152" x="179" y="90" fill="#36c" stroke="none" stroke-width="0"/><rect width="20" height="152" x="246" y="90" fill="#36c" stroke="none" stroke-width="0"/><rect width="20" height="152" x="312" y="90" fill="#36c" stroke="none" stroke-width="0"/><rect width="20" height="152" x="379" y="90" fill="#36c" stroke="none" stroke-width="0"/><rect width="20" height="152" x="445" y="90" fill="#36c" stroke="none" stroke-width="0"/><rect width="20" height="143" x="134" y="99" fill="#dc3912" stroke="none" stroke-width="0"/><rect width="20" height="140" x="200" y="102" fill="#dc3912" stroke="none" stroke-width="0"/><rect width="20" height="143" x="267" y="99" fill="#dc3912" stroke="none" stroke-width="0"/><rect width="20" height="115" x="333" y="127" fill="#dc3912" stroke="none" stroke-width="0"/><rect width="20" height="150" x="400" y="92" fill="#dc3912" stroke="none" stroke-width="0"/><rect width="20" height="143" x="466" y="99" fill="#dc3912" stroke="none" stroke-width="0"/></g><g><rect width="400" height="1" x="100" y="242" fill="#333" stroke="none" stroke-width="0"/></g></g><g><g><text x="135.85" y="259.637" fill="#222" stroke="none" stroke-width="0" font-family="Arial" font-size="12" text-anchor="end" transform="rotate(-30 135.85 259.63730669589467)">resize</text></g><g><text x="202.35" y="259.637" fill="#222" stroke="none" stroke-width="0" font-family="Arial" font-size="12" text-anchor="end" transform="rotate(-30 202.35 259.63730669589467)">int</text></g><g><text x="268.85" y="259.637" fill="#222" stroke="none" stroke-width="0" font-family="Arial" font-size="12" text-anchor="end" transform="rotate(-30 268.85 259.63730669589467)">string</text></g><g><text x="335.35" y="259.637" fill="#222" stroke="none" stroke-width="0" font-family="Arial" font-size="12" text-anchor="end" transform="rotate(-30 335.35 259.63730669589467)">bulk</text></g><g><text x="401.85" y="259.637" fill="#222" stroke="none" stroke-width="0" font-family="Arial" font-size="12" text-anchor="end" transform="rotate(-30 401.85 259.63730669589467)">ptr</text></g><g><text x="468.35" y="259.637" fill="#222" stroke="none" stroke-width="0" font-family="Arial" font-size="12" text-anchor="end" transform="rotate(-30 468.35 259.63730669589467)">obj</text></g><g><text x="88" y="246.7" fill="#444" stroke="none" stroke-width="0" font-family="Arial" font-size="12" text-anchor="end">0.0</text></g><g><text x="88" y="216.033" fill="#444" stroke="none" stroke-width="0" font-family="Arial" font-size="12" text-anchor="end">0.2</text></g><g><text x="88" y="185.367" fill="#444" stroke="none" stroke-width="0" font-family="Arial" font-size="12" text-anchor="end">0.4</text></g><g><text x="88" y="154.7" fill="#444" stroke="none" stroke-width="0" font-family="Arial" font-size="12" text-anchor="end">0.6</text></g><g><text x="88" y="124.033" fill="#444" stroke="none" stroke-width="0" font-family="Arial" font-size="12" text-anchor="end">0.8</text></g><g><text x="88" y="93.367" fill="#444" stroke="none" stroke-width="0" font-family="Arial" font-size="12" text-anchor="end">1.0</text></g><g><text x="88" y="62.7" fill="#444" stroke="none" stroke-width="0" font-family="Arial" font-size="12" text-anchor="end">1.2</text></g></g></g><g><g><text x="39.7" y="150.5" fill="#222" stroke="none" stroke-width="0" font-family="Arial" font-size="12" font-style="italic" text-anchor="middle" transform="rotate(-90 39.7 150.5)">relative time</text></g></g></svg>