<svg xmlns="http://www.w3.org/2000/svg" xmlns:ev="http://www.w3.org/2001/xml-events" width="600" height="300" aria-label="A chart." overflow="hidden" xlink="http://www.w3.org/1999/xlink"><defs id="defs"><clipPath id="_ABSTRACT_RENDERER_ID_0"><rect width="400" height="185" x="100" y="58"/></clipPath></defs><g><text x="100" y="23.7" fill="#000" stroke="none" stroke-width="0" font-family="Arial" font-size="12" font-weight="bold" text-anchor="start">GC Benchmark Comparison (Linux/64, Core i5-2400S)</text></g><g><rect width="135" height="12" x="365" y="33" fill="#fff" fill-opacity="0" stroke="none" stroke-width="0"/><g><rect width="58" height="12" x="365" y="33" fill="#fff" fill-opacity="0" stroke="none" stroke-width="0"/><g><text x="382" y="43.2" fill="#222" stroke="none" stroke-width="0" font-family="Arial" font-size="12" text-anchor="start">2.066.1</text></g><rect width="12" height="12" x="365" y="33" fill="#36c" stroke="none" stroke-width="0"/></g><g><rect width="58" height="12" x="442" y="33" fill="#fff" fill-opacity="0" stroke="none" stroke-width="0"/><g><text x="459" y="43.2" fill="#222" stroke="none" stroke-width="0" font-family="Arial" font-size="12" text-anchor="start">2.067.0</text></g><rect width="12" height="12" x="442" y="33" fill="#dc3912" stroke="none" stroke-width="0"/></g></g><g><rect width="400" height="185" x="100" y="58" fill="#fff" fill-opacity="0" stroke="none" stroke-width="0"/><g clip-path="url(#_ABSTRACT_RENDERER_ID_0)"><g><rect width="400" height="1" x="100" y="242" fill="#ccc" stroke="none" stroke-width="0"/><rect width="400" height="1" x="100" y="196" fill="#ccc" stroke="none" stroke-width="0"/><rect width="400" height="1" x="100" y="150" fill="#ccc" stroke="none" stroke-width="0"/><rect width="400" height="1" x="100" y="104" fill="#ccc" stroke="none" stroke-width="0"/><rect width="400" height="1" x="100" y="58" fill="#ccc" stroke="none" stroke-width="0"/></g><g><rect width="13" height="96" x="109" y="146" fill="#36c" stroke="none" stroke-width="0"/><rect width="13" height="50" x="153" y="192" fill="#36c" stroke="none" stroke-width="0"/><rect width="13" height="122" x="197" y="120" fill="#36c" stroke="none" stroke-width="0"/><rect width="13" height="145" x="242" y="97" fill="#36c" stroke="none" stroke-width="0"/><rect width="13" height="54" x="286" y="188" fill="#36c" stroke="none" stroke-width="0"/><rect width="13" height="40" x="330" y="202" fill="#36c" stroke="none" stroke-width="0"/><rect width="13" height="91" x="375" y="151" fill="#36c" stroke="none" stroke-width="0"/><rect width="13" height="32" x="419" y="210" fill="#36c" stroke="none" stroke-width="0"/><rect width="13" height="92" x="463" y="150" fill="#36c" stroke="none" stroke-width="0"/><rect width="13" height="28" x="123" y="214" fill="#dc3912" stroke="none" stroke-width="0"/><rect width="13" height="55" x="167" y="187" fill="#dc3912" stroke="none" stroke-width="0"/><rect width="13" height="92" x="211" y="150" fill="#dc3912" stroke="none" stroke-width="0"/><rect width="13" height="96" x="256" y="146" fill="#dc3912" stroke="none" stroke-width="0"/><rect width="13" height="56" x="300" y="186" fill="#dc3912" stroke="none" stroke-width="0"/><rect width="13" height="14" x="344" y="228" fill="#dc3912" stroke="none" stroke-width="0"/><rect width="13" height="94" x="389" y="148" fill="#dc3912" stroke="none" stroke-width="0"/><rect width="13" height="27" x="433" y="215" fill="#dc3912" stroke="none" stroke-width="0"/><rect width="13" height="92" x="477" y="150" fill="#dc3912" stroke="none" stroke-width="0"/></g><g><rect width="400" height="1" x="100" y="242" fill="#333" stroke="none" stroke-width="0"/></g></g><g><g><text x="124.767" y="259.637" fill="#222" stroke="none" stroke-width="0" font-family="Arial" font-size="12" text-anchor="end" transform="rotate(-30 124.76666666666667 259.63730669589467)">tree1</text></g><g><text x="169.1" y="259.637" fill="#222" stroke="none" stroke-width="0" font-family="Arial" font-size="12" text-anchor="end" transform="rotate(-30 169.1 259.63730669589467)">tree2</text></g><g><text x="213.433" y="259.637" fill="#222" stroke="none" stroke-width="0" font-family="Arial" font-size="12" text-anchor="end" transform="rotate(-30 213.43333333333334 259.63730669589467)">vdparser</text></g><g><text x="257.767" y="259.637" fill="#222" stroke="none" stroke-width="0" font-family="Arial" font-size="12" text-anchor="end" transform="rotate(-30 257.7666666666667 259.63730669589467)">testgc3</text></g><g><text x="302.1" y="259.637" fill="#222" stroke="none" stroke-width="0" font-family="Arial" font-size="12" text-anchor="end" transform="rotate(-30 302.1 259.63730669589467)">words</text></g><g><text x="346.433" y="259.637" fill="#222" stroke="none" stroke-width="0" font-family="Arial" font-size="12" text-anchor="end" transform="rotate(-30 346.4333333333334 259.63730669589467)">rand_large</text></g><g><text x="390.767" y="259.637" fill="#222" stroke="none" stroke-width="0" font-family="Arial" font-size="12" text-anchor="end" transform="rotate(-30 390.7666666666667 259.63730669589467)">dlist</text></g><g><text x="435.1" y="259.637" fill="#222" stroke="none" stroke-width="0" font-family="Arial" font-size="12" text-anchor="end" transform="rotate(-30 435.1 259.63730669589467)">rand_small</text></g><g><text x="479.433" y="259.637" fill="#222" stroke="none" stroke-width="0" font-family="Arial" font-size="12" text-anchor="end" transform="rotate(-30 479.4333333333334 259.63730669589467)">slist</text></g><g><text x="88" y="246.7" fill="#444" stroke="none" stroke-width="0" font-family="Arial" font-size="12" text-anchor="end">0</text></g><g><text x="88" y="200.7" fill="#444" stroke="none" stroke-width="0" font-family="Arial" font-size="12" text-anchor="end">1</text></g><g><text x="88" y="154.7" fill="#444" stroke="none" stroke-width="0" font-family="Arial" font-size="12" text-anchor="end">2</text></g><g><text x="88" y="108.7" fill="#444" stroke="none" stroke-width="0" font-family="Arial" font-size="12" text-anchor="end">3</text></g><g><text x="88" y="62.7" fill="#444" stroke="none" stroke-width="0" font-family="Arial" font-size="12" text-anchor="end">4</text></g></g></g><g><g><text x="44.7" y="150.5" fill="#222" stroke="none" stroke-width="0" font-family="Arial" font-size="12" font-style="italic" text-anchor="middle" transform="rotate(-90 44.7 150.5)">time / s</text></g></g></svg>